<svg width="24" height="25" viewBox="0 0 24 25" fill="none" xmlns="http://www.w3.org/2000/svg">
<path fill-rule="evenodd" clip-rule="evenodd" d="M22.6127 12.499C22.6127 13.0455 22.1719 13.4886 21.6282 13.4886H6.31415C5.77047 13.4886 5.32972 13.0455 5.32972 12.499C5.32972 11.9524 5.77047 11.5094 6.31415 11.5094H21.6282C22.1719 11.5094 22.6127 11.9524 22.6127 12.499Z" fill="#FEBD01"/>
<path fill-rule="evenodd" clip-rule="evenodd" d="M22.6131 12.5003C22.6131 12.8805 22.3964 13.227 22.0557 13.3919L3.26113 22.4886C2.89746 22.6646 2.46374 22.5996 2.16693 22.3246C1.87012 22.0496 1.77037 21.6204 1.91526 21.2417L5.25982 12.5003L1.91526 3.7589C1.77037 3.3802 1.87012 2.95096 2.16693 2.67598C2.46374 2.40101 2.89746 2.33603 3.26113 2.51205L22.0557 11.6087C22.3964 11.7736 22.6131 12.1201 22.6131 12.5003ZM4.64425 5.37811L7.23336 12.1451C7.32085 12.3737 7.32085 12.6269 7.23336 12.8555L4.64425 19.6225L19.3594 12.5003L4.64425 5.37811Z" fill="#FEBD01"/>
</svg>
